<svg xmlns="http://www.w3.org/2000/svg" xmlns:xlink="http://www.w3.org/1999/xlink" viewBox="0 0 297 297"><defs><style>.cls-1{fill:url(#radial-gradient);}.cls-2{fill:url(#radial-gradient-2);}.cls-3{fill:url(#linear-gradient);}.cls-4{fill:url(#linear-gradient-2);}.cls-5{fill:url(#linear-gradient-3);}.cls-6{fill:url(#linear-gradient-4);}.cls-7{fill:url(#linear-gradient-5);}.cls-8{fill:url(#linear-gradient-6);}.cls-9{fill:url(#linear-gradient-7);}.cls-10{fill:url(#linear-gradient-8);}.cls-11{fill:url(#linear-gradient-9);}.cls-12{fill:url(#linear-gradient-10);}.cls-13{fill:url(#linear-gradient-11);}.cls-14{fill:url(#linear-gradient-12);}.cls-15{fill:url(#linear-gradient-13);}.cls-16{fill:#141326;}.cls-17{mask:url(#mask);}.cls-18{fill:#2195f3;}.cls-19{fill:#fff;}.cls-20{filter:url(#luminosity-noclip);}</style><radialGradient id="radial-gradient" cx="126.9" cy="139.83" r="43.5" gradientTransform="translate(-272.91 -272.91) scale(2.84 2.84)" gradientUnits="userSpaceOnUse"><stop offset="0" stop-color="#fff"/><stop offset="0.03" stop-color="#dadada"/><stop offset="0.08" stop-color="#a7a7a7"/><stop offset="0.13" stop-color="#7b7b7b"/><stop offset="0.18" stop-color="#555"/><stop offset="0.24" stop-color="#363636"/><stop offset="0.29" stop-color="#1e1e1e"/><stop offset="0.35" stop-color="#0d0d0d"/><stop offset="0.42" stop-color="#030303"/><stop offset="0.5"/><stop offset="0.58" stop-color="#030303"/><stop offset="0.65" stop-color="#0d0d0d"/><stop offset="0.71" stop-color="#1e1e1e"/><stop offset="0.76" stop-color="#363636"/><stop offset="0.82" stop-color="#555"/><stop offset="0.87" stop-color="#7b7b7b"/><stop offset="0.92" stop-color="#a7a7a7"/><stop offset="0.97" stop-color="#dadada"/><stop offset="1" stop-color="#fff"/></radialGradient><radialGradient id="radial-gradient-2" cx="126.72" cy="139.93" r="43.45" xlink:href="#radial-gradient"/><linearGradient id="linear-gradient" x1="81.54" y1="122.62" x2="211.17" y2="122.62" gradientUnits="userSpaceOnUse"><stop offset="0"/><stop offset="0.5" stop-color="#fff"/><stop offset="1"/></linearGradient><linearGradient id="linear-gradient-2" x1="81.54" y1="142.18" x2="211.17" y2="142.18" xlink:href="#linear-gradient"/><linearGradient id="linear-gradient-3" x1="82.51" y1="123.89" x2="212.14" y2="123.89" xlink:href="#linear-gradient"/><linearGradient id="linear-gradient-4" x1="82.51" y1="136.94" x2="212.14" y2="136.94" xlink:href="#linear-gradient"/><linearGradient id="linear-gradient-5" x1="80.56" y1="139.81" x2="210.2" y2="139.81" xlink:href="#linear-gradient"/><linearGradient id="linear-gradient-6" x1="80.56" y1="126.76" x2="210.2" y2="126.76" xlink:href="#linear-gradient"/><linearGradient id="linear-gradient-7" x1="85.43" y1="124.64" x2="215.07" y2="124.64" xlink:href="#linear-gradient"/><linearGradient id="linear-gradient-8" x1="85.43" y1="105.08" x2="215.05" y2="105.08" xlink:href="#linear-gradient"/><linearGradient id="linear-gradient-9" x1="86.4" y1="106.9" x2="216.03" y2="106.9" xlink:href="#linear-gradient"/><linearGradient id="linear-gradient-10" x1="86.4" y1="119.95" x2="216.04" y2="119.95" xlink:href="#linear-gradient"/><linearGradient id="linear-gradient-11" x1="84.45" y1="123.91" x2="214.09" y2="123.91" xlink:href="#linear-gradient"/><linearGradient id="linear-gradient-12" x1="84.46" y1="110.86" x2="214.09" y2="110.86" xlink:href="#linear-gradient"/><linearGradient id="linear-gradient-13" x1="83.48" y1="123.63" x2="213.12" y2="123.63" xlink:href="#linear-gradient"/><filter id="luminosity-noclip" x="83.59" y="99.04" width="129.83" height="49.17" filterUnits="userSpaceOnUse" color-interpolation-filters="sRGB"><feFlood flood-color="#fff" result="bg"/><feBlend in="SourceGraphic" in2="bg"/></filter><mask id="mask" x="83.59" y="99.04" width="129.83" height="49.17" maskUnits="userSpaceOnUse"><g class="cls-20"><path class="cls-1" d="M118.36,148.22c-17.37,0-26.11-11.56-33.82-21.75A4.65,4.65,0,0,1,88.23,119a4.58,4.58,0,0,1,3.69,1.84c7.34,9.71,13.68,18.1,26.44,18.1a23.54,23.54,0,0,0,16.43-6.4,4.63,4.63,0,0,1,6.14,6.93A32.28,32.28,0,0,1,118.36,148.22Z"/><path class="cls-2" d="M208.78,128.25a4.61,4.61,0,0,1-3.71-1.84c-7.34-9.71-13.67-18.08-26.43-18.08a23.47,23.47,0,0,0-16.42,6.41,4.63,4.63,0,0,1-6.14-6.94,32.26,32.26,0,0,1,22.56-8.75c17.37,0,26.11,11.54,33.82,21.73a4.67,4.67,0,0,1,.91,3.47,4.65,4.65,0,0,1-4.59,4Z"/><path class="cls-3" d="M179,132.33a3.54,3.54,0,0,1-3.54-3.53V116.43a3.54,3.54,0,0,1,7.07,0V128.8A3.53,3.53,0,0,1,179,132.33Z"/><path class="cls-4" d="M179,148.21a3.54,3.54,0,0,1-3.54-3.53v-5a3.54,3.54,0,1,1,7.07,0v5a3.52,3.52,0,0,1-3.53,3.53Z"/><path class="cls-5" d="M163.75,127.43a3.84,3.84,0,0,1-.69-.07,4.6,4.6,0,0,1-.66-.2,3.59,3.59,0,0,1-.62-.33,3.18,3.18,0,0,1-.53-.44,2.88,2.88,0,0,1-.44-.54,3.25,3.25,0,0,1-.33-.61,3.6,3.6,0,0,1-.2-.66,3.44,3.44,0,0,1,0-1.38,3,3,0,0,1,.2-.66,3.25,3.25,0,0,1,.33-.61,3,3,0,0,1,.44-.54,3.53,3.53,0,0,1,.53-.44,3.88,3.88,0,0,1,1.27-.52,3.55,3.55,0,0,1,2,.2,3.24,3.24,0,0,1,.61.32,3.59,3.59,0,0,1,.54.44,3.34,3.34,0,0,1,.44.54,3.91,3.91,0,0,1,.32.61,3,3,0,0,1,.2.66,3.44,3.44,0,0,1,0,1.38,2.81,2.81,0,0,1-.2.66,3.91,3.91,0,0,1-.32.61,3.34,3.34,0,0,1-.44.54,4.51,4.51,0,0,1-.54.44,3.6,3.6,0,0,1-.61.33,5.53,5.53,0,0,1-.66.2A4,4,0,0,1,163.75,127.43Z"/><path class="cls-6" d="M163.75,143.89a3.55,3.55,0,0,1-3.54-3.54v-6.83a3.54,3.54,0,0,1,7.07,0v6.83A3.54,3.54,0,0,1,163.75,143.89Z"/><path class="cls-7" d="M194.24,143.35a4,4,0,0,1-.7-.07,4.15,4.15,0,0,1-.66-.2,4,4,0,0,1-.61-.33,3.53,3.53,0,0,1-.53-.44,3.75,3.75,0,0,1-.44-.53,3.34,3.34,0,0,1-.33-.62,3,3,0,0,1-.2-.66,3.94,3.94,0,0,1-.07-.69,4,4,0,0,1,.07-.69,3.44,3.44,0,0,1,.53-1.27,4.51,4.51,0,0,1,.44-.54,3.34,3.34,0,0,1,.54-.44,4.3,4.3,0,0,1,.6-.32,3.59,3.59,0,0,1,1.36-.27,3.23,3.23,0,0,1,.69.07,3.13,3.13,0,0,1,.66.2,2.73,2.73,0,0,1,.61.33,3.64,3.64,0,0,1,.54.43,4.51,4.51,0,0,1,.44.54,4.42,4.42,0,0,1,.32.61,3,3,0,0,1,.2.66,3.23,3.23,0,0,1,.07.69,3.17,3.17,0,0,1-.07.69,2.81,2.81,0,0,1-.2.66,3.91,3.91,0,0,1-.32.61,3.34,3.34,0,0,1-.44.54,4.17,4.17,0,0,1-.54.44,4,4,0,0,1-.61.33,3.59,3.59,0,0,1-1.35.27Z"/><path class="cls-8" d="M194.24,133.72a3.55,3.55,0,0,1-3.54-3.54v-6.83a3.54,3.54,0,1,1,7.07,0v6.83A3.54,3.54,0,0,1,194.24,133.72Z"/><path class="cls-9" d="M118,134.36a3.54,3.54,0,0,1-3.53-3.54V118.46a3.54,3.54,0,1,1,7.07,0v12.36A3.55,3.55,0,0,1,118,134.36Z"/><path class="cls-10" d="M118,111.11a3.53,3.53,0,0,1-3.53-3.54v-5A3.54,3.54,0,0,1,118,99a3.55,3.55,0,0,1,3.54,3.54v5a3.55,3.55,0,0,1-3.54,3.54Z"/><path class="cls-11" d="M102.76,110.44a4,4,0,0,1-.69-.07,4.6,4.6,0,0,1-.66-.2,3.25,3.25,0,0,1-.61-.33,4.43,4.43,0,0,1-.54-.43,3.93,3.93,0,0,1-.44-.55,3.46,3.46,0,0,1-.32-.6,3.49,3.49,0,0,1-.21-.67,4,4,0,0,1,0-1.38,3.63,3.63,0,0,1,.21-.66,3.55,3.55,0,0,1,.32-.61,3.84,3.84,0,0,1,.44-.54,3.16,3.16,0,0,1,.54-.44,3.55,3.55,0,0,1,.61-.32,3,3,0,0,1,.66-.2,3.44,3.44,0,0,1,1.38,0,3,3,0,0,1,.66.2,3.55,3.55,0,0,1,.61.32,3.16,3.16,0,0,1,.54.44,3.54,3.54,0,0,1,.44.54,3.6,3.6,0,0,1,.33.61,5,5,0,0,1,.2.66,3.44,3.44,0,0,1,0,1.38,4.73,4.73,0,0,1-.2.67,4.36,4.36,0,0,1-.33.6,3.34,3.34,0,0,1-.44.54,2.88,2.88,0,0,1-.54.44,3.48,3.48,0,0,1-.61.33,4.88,4.88,0,0,1-.65.2A4.26,4.26,0,0,1,102.76,110.44Z"/><path class="cls-12" d="M102.76,126.9a3.53,3.53,0,0,1-3.53-3.53v-6.83a3.54,3.54,0,1,1,7.07,0v6.83A3.54,3.54,0,0,1,102.76,126.9Z"/><path class="cls-13" d="M133.25,127.44a3.11,3.11,0,0,1-.69-.07,3.32,3.32,0,0,1-.66-.2,3.24,3.24,0,0,1-.61-.32,3.59,3.59,0,0,1-.54-.44,3.54,3.54,0,0,1-.44-.54,3.91,3.91,0,0,1-.32-.61,3.13,3.13,0,0,1-.2-.66,3.44,3.44,0,0,1,0-1.38,3,3,0,0,1,.2-.67,4.3,4.3,0,0,1,.32-.6,3.34,3.34,0,0,1,.44-.54,3.71,3.71,0,0,1,.54-.44,3.6,3.6,0,0,1,.61-.33,5.53,5.53,0,0,1,.66-.2,4,4,0,0,1,.69-.07,4.15,4.15,0,0,1,.7.07,4.88,4.88,0,0,1,.65.2,3.69,3.69,0,0,1,.62.33,3.18,3.18,0,0,1,.53.44,2.88,2.88,0,0,1,.44.54,3.51,3.51,0,0,1,.33.6,3.71,3.71,0,0,1,.2.67,3.44,3.44,0,0,1,0,1.38,3.13,3.13,0,0,1-.2.66,3.25,3.25,0,0,1-.33.61,3.84,3.84,0,0,1-.44.54,3.53,3.53,0,0,1-.53.44,3.88,3.88,0,0,1-1.27.52A3.14,3.14,0,0,1,133.25,127.44Z"/><path class="cls-14" d="M133.25,117.81a3.53,3.53,0,0,1-3.53-3.53v-6.84a3.54,3.54,0,0,1,7.07,0v6.84A3.54,3.54,0,0,1,133.25,117.81Z"/><path class="cls-15" d="M148.5,134.08a3.54,3.54,0,0,1-3.54-3.53V116.71a3.54,3.54,0,1,1,7.08,0v13.84A3.54,3.54,0,0,1,148.5,134.08Z"/></g></mask></defs><g id="Layer_2" data-name="Layer 2"><g id="Layer_1-2" data-name="Layer 1"><rect class="cls-16" width="297" height="297" rx="24"/><g class="cls-17"><path class="cls-18" d="M141,132.87h0a4.42,4.42,0,0,1-.19,6.43A32.31,32.31,0,0,1,118.36,148c-17.27,0-26-11.53-33.67-21.69A4.43,4.43,0,1,1,91.75,121c7.38,9.77,13.75,18.18,26.61,18.18a23.66,23.66,0,0,0,16.57-6.46A4.41,4.41,0,0,1,141,132.87Z"/><path class="cls-18" d="M211.44,127.14a4.44,4.44,0,0,1-6.21-.86c-7.36-9.74-13.72-18.16-26.59-18.16a23.64,23.64,0,0,0-16.56,6.46,4.41,4.41,0,0,1-6.05-.19h0a4.42,4.42,0,0,1,.19-6.43,32.28,32.28,0,0,1,22.42-8.7c17.28,0,26,11.51,33.67,21.67A4.43,4.43,0,0,1,211.44,127.14Z"/><path class="cls-18" d="M179,132.12a3.32,3.32,0,0,0,3.32-3.32V116.43a3.33,3.33,0,0,0-6.65,0V128.8A3.33,3.33,0,0,0,179,132.12Z"/><path class="cls-18" d="M179,136.36h0a3.33,3.33,0,0,0-3.33,3.33v5A3.33,3.33,0,0,0,179,148h0a3.32,3.32,0,0,0,3.32-3.32v-5A3.32,3.32,0,0,0,179,136.36Z"/><path class="cls-18" d="M160.68,125.16a2.81,2.81,0,0,0,.3.57,3,3,0,0,0,.42.51,3.31,3.31,0,0,0,.5.41,2.7,2.7,0,0,0,.58.31,4.44,4.44,0,0,0,.62.19,3.55,3.55,0,0,0,1.3,0A4.44,4.44,0,0,0,165,127a2.63,2.63,0,0,0,.57-.31,4,4,0,0,0,.51-.41,3,3,0,0,0,.41-.51,3.46,3.46,0,0,0,.31-.57,3.38,3.38,0,0,0,.18-.62,3.05,3.05,0,0,0,0-1.3,3.38,3.38,0,0,0-.18-.62,3.91,3.91,0,0,0-.31-.57,3,3,0,0,0-.41-.51,4,4,0,0,0-.51-.41,3.15,3.15,0,0,0-.57-.31,4.44,4.44,0,0,0-.62-.19,3.68,3.68,0,0,0-.66-.06,3.47,3.47,0,0,0-.64.06,4.44,4.44,0,0,0-.62.19,3.23,3.23,0,0,0-.58.31,3.31,3.31,0,0,0-.5.41,3,3,0,0,0-.42.51,3.1,3.1,0,0,0-.3.57,2.77,2.77,0,0,0-.19.62,3.05,3.05,0,0,0,0,1.3A2.77,2.77,0,0,0,160.68,125.16Z"/><path class="cls-18" d="M163.75,130.2a3.33,3.33,0,0,0-3.33,3.32v6.83a3.33,3.33,0,1,0,6.65,0v-6.83A3.32,3.32,0,0,0,163.75,130.2Z"/><path class="cls-18" d="M197.49,139.16a3.38,3.38,0,0,0-.18-.62A3.91,3.91,0,0,0,197,138a4,4,0,0,0-.41-.51,3.39,3.39,0,0,0-.51-.41,3.91,3.91,0,0,0-.57-.31,4.44,4.44,0,0,0-.62-.19,3.55,3.55,0,0,0-1.3,0,4.44,4.44,0,0,0-.62.19,4,4,0,0,0-.58.31,3.31,3.31,0,0,0-.5.41,5.17,5.17,0,0,0-.42.51,3.1,3.1,0,0,0-.3.57,2.77,2.77,0,0,0-.19.62,3.66,3.66,0,0,0-.06.65,3.49,3.49,0,0,0,.06.65,2.62,2.62,0,0,0,.19.62,2.89,2.89,0,0,0,.3.58,4.11,4.11,0,0,0,.42.5,2.86,2.86,0,0,0,.5.42,4,4,0,0,0,.58.3,3.41,3.41,0,0,0,.62.19,2.81,2.81,0,0,0,.65.07,2.94,2.94,0,0,0,.65-.07,3.41,3.41,0,0,0,.62-.19,3.86,3.86,0,0,0,.57-.3,3.35,3.35,0,0,0,.51-.42,3.31,3.31,0,0,0,.41-.5,3.56,3.56,0,0,0,.31-.58,3.17,3.17,0,0,0,.18-.62,2.81,2.81,0,0,0,.07-.65A2.94,2.94,0,0,0,197.49,139.16Z"/><path class="cls-18" d="M194.24,133.5a3.32,3.32,0,0,0,3.32-3.32v-6.83a3.33,3.33,0,0,0-6.65,0v6.83A3.32,3.32,0,0,0,194.24,133.5Z"/><path class="cls-18" d="M118,115.13a3.33,3.33,0,0,0-3.32,3.33v12.36a3.33,3.33,0,1,0,6.65,0V118.46A3.33,3.33,0,0,0,118,115.13Z"/><path class="cls-18" d="M118,99.26h0a3.32,3.32,0,0,0-3.32,3.32v5A3.33,3.33,0,0,0,118,110.9h0a3.33,3.33,0,0,0,3.33-3.33v-5A3.33,3.33,0,0,0,118,99.26Z"/><path class="cls-18" d="M105.83,105.63a3.91,3.91,0,0,0-.31-.57,3.39,3.39,0,0,0-.41-.51,3.31,3.31,0,0,0-.5-.41,4,4,0,0,0-.58-.31,3.38,3.38,0,0,0-.62-.18,3.05,3.05,0,0,0-1.3,0,3.38,3.38,0,0,0-.62.18,3.91,3.91,0,0,0-.57.31,3,3,0,0,0-.51.41,3.39,3.39,0,0,0-.41.51,3.91,3.91,0,0,0-.31.57,3.41,3.41,0,0,0-.19.62,3.57,3.57,0,0,0-.06.65,3.49,3.49,0,0,0,.06.65,3.41,3.41,0,0,0,.19.62,4,4,0,0,0,.31.58,3.31,3.31,0,0,0,.41.5,3,3,0,0,0,.51.41,2.63,2.63,0,0,0,.57.31,3.41,3.41,0,0,0,.62.19,3.16,3.16,0,0,0,1.3,0A3.41,3.41,0,0,0,104,110a2.7,2.7,0,0,0,.58-.31,3.28,3.28,0,0,0,.91-.91,4,4,0,0,0,.31-.58,3.41,3.41,0,0,0,.19-.62,3.5,3.5,0,0,0,.07-.65,3.59,3.59,0,0,0-.07-.65A3.41,3.41,0,0,0,105.83,105.63Z"/><path class="cls-18" d="M102.76,113.21a3.33,3.33,0,0,0-3.32,3.33v6.83a3.32,3.32,0,1,0,6.64,0v-6.83A3.32,3.32,0,0,0,102.76,113.21Z"/><path class="cls-18" d="M136.32,122.64a2.81,2.81,0,0,0-.3-.57,2.59,2.59,0,0,0-.42-.51,3.31,3.31,0,0,0-.5-.41,2.7,2.7,0,0,0-.58-.31,3.41,3.41,0,0,0-.62-.19,3.16,3.16,0,0,0-1.3,0,3.41,3.41,0,0,0-.62.19,2.63,2.63,0,0,0-.57.31,3.39,3.39,0,0,0-.51.41,3,3,0,0,0-.41.51,2.81,2.81,0,0,0-.3.57,2.77,2.77,0,0,0-.19.62,2.81,2.81,0,0,0-.07.65,2.88,2.88,0,0,0,.07.65,2.77,2.77,0,0,0,.19.62,3.1,3.1,0,0,0,.3.57,3.39,3.39,0,0,0,.41.51,4,4,0,0,0,.51.41,3.15,3.15,0,0,0,.57.31,4.44,4.44,0,0,0,.62.19,3.66,3.66,0,0,0,.65.06,3.49,3.49,0,0,0,.65-.06,4.44,4.44,0,0,0,.62-.19,3.23,3.23,0,0,0,.58-.31,3.31,3.31,0,0,0,.5-.41,2.92,2.92,0,0,0,.42-.51,3.1,3.1,0,0,0,.3-.57,2.77,2.77,0,0,0,.19-.62,3.59,3.59,0,0,0,.07-.65,3.5,3.5,0,0,0-.07-.65A2.77,2.77,0,0,0,136.32,122.64Z"/><path class="cls-18" d="M133.25,104.12a3.32,3.32,0,0,0-3.32,3.32v6.84a3.33,3.33,0,0,0,6.65,0v-6.84A3.33,3.33,0,0,0,133.25,104.12Z"/><path class="cls-18" d="M148.5,113.39a3.31,3.31,0,0,0-3.32,3.32v13.84a3.32,3.32,0,0,0,6.64,0V116.71A3.31,3.31,0,0,0,148.5,113.39Z"/></g><path class="cls-19" d="M54,166.51a20.81,20.81,0,0,1,5.6.67,9,9,0,0,1,3.71,1.89,3.8,3.8,0,0,1,1.32,2.9,3.67,3.67,0,0,1-.67,2.11,2.23,2.23,0,0,1-2,1,3.77,3.77,0,0,1-1.49-.25,3.72,3.72,0,0,1-1-.65,6.34,6.34,0,0,0-1.06-.73,5.3,5.3,0,0,0-1.72-.53,11.54,11.54,0,0,0-1.72-.2,9.06,9.06,0,0,0-4.87,1.24A8.18,8.18,0,0,0,47,177.29,10.51,10.51,0,0,0,46,182.15a10.19,10.19,0,0,0,1.1,4.82,8.68,8.68,0,0,0,3,3.35,8.21,8.21,0,0,0,4.48,1.23,14.16,14.16,0,0,0,2.42-.17,6.16,6.16,0,0,0,1.69-.5,10.1,10.1,0,0,0,1.4-1,2.9,2.9,0,0,1,1.86-.51,2.77,2.77,0,0,1,2.25.93,3.38,3.38,0,0,1,.79,2.28,3.23,3.23,0,0,1-1.58,2.56A12.68,12.68,0,0,1,59.27,197a20.88,20.88,0,0,1-5.55.7A14.18,14.18,0,0,1,46,195.69a13.77,13.77,0,0,1-5-5.6,17.39,17.39,0,0,1-1.78-7.94A16.94,16.94,0,0,1,41.09,174a14,14,0,0,1,5.23-5.51A14.77,14.77,0,0,1,54,166.51Z"/><path class="cls-19" d="M98.8,182.15a15.85,15.85,0,0,1-2,8.14,14.78,14.78,0,0,1-5.51,5.48,16.19,16.19,0,0,1-15.48,0,14.74,14.74,0,0,1-5.52-5.48,17.17,17.17,0,0,1,0-16.27,15,15,0,0,1,5.52-5.51,16,16,0,0,1,15.48,0A15,15,0,0,1,96.75,174,15.84,15.84,0,0,1,98.8,182.15Zm-6.75,0a10.23,10.23,0,0,0-1.15-5,8.62,8.62,0,0,0-3.1-3.29,8.44,8.44,0,0,0-8.61,0,8.6,8.6,0,0,0-3.09,3.29,10.24,10.24,0,0,0-1.16,5,10.12,10.12,0,0,0,1.16,4.93,8.53,8.53,0,0,0,3.09,3.29,8.44,8.44,0,0,0,8.61,0,8.55,8.55,0,0,0,3.1-3.29A10.12,10.12,0,0,0,92.05,182.15Z"/><path class="cls-19" d="M117.55,166.51a20.81,20.81,0,0,1,5.6.67,9,9,0,0,1,3.71,1.89,3.8,3.8,0,0,1,1.32,2.9,3.67,3.67,0,0,1-.67,2.11,2.23,2.23,0,0,1-2,1,3.77,3.77,0,0,1-1.49-.25,3.53,3.53,0,0,1-1-.65,6.9,6.9,0,0,0-1.07-.73,5.3,5.3,0,0,0-1.72-.53,11.54,11.54,0,0,0-1.72-.2,9.06,9.06,0,0,0-4.87,1.24,8.18,8.18,0,0,0-3.06,3.35,10.51,10.51,0,0,0-1.07,4.86,10.19,10.19,0,0,0,1.1,4.82,8.68,8.68,0,0,0,3,3.35,8.21,8.21,0,0,0,4.48,1.23,14.16,14.16,0,0,0,2.42-.17,6.16,6.16,0,0,0,1.69-.5,10.1,10.1,0,0,0,1.4-1,2.9,2.9,0,0,1,1.86-.51,2.77,2.77,0,0,1,2.25.93,3.38,3.38,0,0,1,.79,2.28,3.23,3.23,0,0,1-1.58,2.56,12.68,12.68,0,0,1-4.13,1.86,20.88,20.88,0,0,1-5.55.7,14.18,14.18,0,0,1-7.71-2.05,13.77,13.77,0,0,1-5-5.6,17.52,17.52,0,0,1-1.78-7.94,16.94,16.94,0,0,1,1.89-8.13,14,14,0,0,1,5.23-5.51A14.77,14.77,0,0,1,117.55,166.51Z"/><path class="cls-19" d="M162.34,182.15a15.85,15.85,0,0,1-2.05,8.14,14.78,14.78,0,0,1-5.51,5.48,16.19,16.19,0,0,1-15.48,0,14.74,14.74,0,0,1-5.52-5.48,17.17,17.17,0,0,1,0-16.27,15,15,0,0,1,5.52-5.51,16,16,0,0,1,15.48,0,15,15,0,0,1,5.51,5.51A15.84,15.84,0,0,1,162.34,182.15Zm-6.75,0a10.23,10.23,0,0,0-1.15-5,8.62,8.62,0,0,0-3.1-3.29,8.44,8.44,0,0,0-8.61,0,8.6,8.6,0,0,0-3.09,3.29,10.24,10.24,0,0,0-1.16,5,10.12,10.12,0,0,0,1.16,4.93,8.53,8.53,0,0,0,3.09,3.29,8.44,8.44,0,0,0,8.61,0,8.55,8.55,0,0,0,3.1-3.29A10.12,10.12,0,0,0,155.59,182.15Z"/><path class="cls-19" d="M182.66,166.51c2.7,0,4.76.58,6.16,1.74a8.82,8.82,0,0,1,2.9,4.65,24.33,24.33,0,0,1,.79,6.44v14.41a3.39,3.39,0,0,1-1,2.45,3.48,3.48,0,0,1-4.84,0,3.42,3.42,0,0,1-1-2.45V179.34a11.61,11.61,0,0,0-.45-3.35,4.64,4.64,0,0,0-1.63-2.39,5.51,5.51,0,0,0-3.38-.9,7,7,0,0,0-3.66.9,5.88,5.88,0,0,0-2.28,2.39,7.24,7.24,0,0,0-.76,3.35v14.41a3.39,3.39,0,0,1-1,2.45,3.48,3.48,0,0,1-4.84,0,3.42,3.42,0,0,1-1-2.45V159a3.4,3.4,0,0,1,1-2.45,3.45,3.45,0,0,1,4.84,0,3.37,3.37,0,0,1,1,2.45v13.95l-.84-.16a12,12,0,0,1,1.4-2.06,12.43,12.43,0,0,1,2.2-2,11.49,11.49,0,0,1,2.87-1.55A9.76,9.76,0,0,1,182.66,166.51Z"/><path class="cls-19" d="M219.92,167.07a3.22,3.22,0,0,1,2.42,1,3.35,3.35,0,0,1,1,2.44v14.3q0,6-3.32,9.45t-9.57,3.49q-6.25,0-9.54-3.49t-3.29-9.45V170.5a3.38,3.38,0,0,1,.95-2.44,3.45,3.45,0,0,1,4.84,0,3.35,3.35,0,0,1,1,2.44v14.3a7.34,7.34,0,0,0,1.52,5.09,5.86,5.86,0,0,0,4.56,1.66,5.93,5.93,0,0,0,4.61-1.66c1-1.1,1.52-2.8,1.52-5.09V170.5a3.35,3.35,0,0,1,1-2.44A3.22,3.22,0,0,1,219.92,167.07Z"/><path class="cls-19" d="M244,166.51a12.82,12.82,0,0,1,7.06,2,14.15,14.15,0,0,1,5,5.48,18.93,18.93,0,0,1,0,16.24,14.38,14.38,0,0,1-4.9,5.52,12.34,12.34,0,0,1-6.89,2A12,12,0,0,1,240,197a13.42,13.42,0,0,1-3.46-1.85,10.57,10.57,0,0,1-2.3-2.28,3.6,3.6,0,0,1-.82-1.95l1.74-.73v4.11a3.36,3.36,0,0,1-1,2.45,3.23,3.23,0,0,1-2.42,1,3.26,3.26,0,0,1-2.42-1,3.36,3.36,0,0,1-1-2.48V159a3.37,3.37,0,0,1,1-2.45,3.45,3.45,0,0,1,4.84,0,3.36,3.36,0,0,1,1,2.45v14.29l-1-.5A3.17,3.17,0,0,1,235,171a11.43,11.43,0,0,1,2.13-2.08,12.55,12.55,0,0,1,3.13-1.72A10.42,10.42,0,0,1,244,166.51Zm-.84,6.19a7.62,7.62,0,0,0-4.34,1.24,8.38,8.38,0,0,0-2.9,3.35,10.76,10.76,0,0,0-1,4.81,11,11,0,0,0,1,4.81,8.36,8.36,0,0,0,2.9,3.41,7.69,7.69,0,0,0,4.34,1.23,7.52,7.52,0,0,0,4.3-1.23,8.38,8.38,0,0,0,2.87-3.41,10.87,10.87,0,0,0,1-4.81,10.63,10.63,0,0,0-1-4.81,8.39,8.39,0,0,0-2.87-3.35A7.45,7.45,0,0,0,243.11,172.7Z"/></g></g></svg>